<svg xmlns="http://www.w3.org/2000/svg" xmlns:xlink="http://www.w3.org/1999/xlink" width="1200" zoomAndPan="magnify" viewBox="0 0 900 899.99999" height="1200" preserveAspectRatio="xMidYMid meet" version="1.0"><defs><clipPath id="e07618ddd6"><path d="M 90 193.050781 L 810 193.050781 L 810 706.800781 L 90 706.800781 Z M 90 193.050781 " clip-rule="nonzero"/></clipPath></defs><g clip-path="url(#e07618ddd6)"><path fill="#3f6b3a" d="M 796.875 218.746094 L 745.488281 218.746094 C 744.644531 218.746094 743.808594 218.828125 742.980469 218.992188 C 742.152344 219.15625 741.351562 219.398438 740.570312 219.722656 C 739.792969 220.046875 739.050781 220.441406 738.347656 220.910156 C 737.648438 221.378906 737 221.910156 736.402344 222.507812 C 735.804688 223.105469 735.273438 223.753906 734.804688 224.453125 C 734.335938 225.15625 733.941406 225.894531 733.617188 226.675781 C 733.296875 227.453125 733.050781 228.257812 732.886719 229.085938 C 732.722656 229.914062 732.640625 230.75 732.640625 231.59375 L 732.640625 244.4375 L 655.554688 244.4375 C 655.554688 242.757812 655.472656 241.078125 655.308594 239.402344 C 655.144531 237.726562 654.898438 236.0625 654.570312 234.414062 C 654.242188 232.761719 653.832031 231.132812 653.34375 229.523438 C 652.855469 227.910156 652.289062 226.328125 651.644531 224.773438 C 651 223.21875 650.28125 221.699219 649.488281 220.214844 C 648.695312 218.730469 647.832031 217.289062 646.894531 215.890625 C 645.960938 214.488281 644.960938 213.140625 643.890625 211.839844 C 642.824219 210.539062 641.695312 209.292969 640.503906 208.101562 C 639.316406 206.910156 638.070312 205.78125 636.769531 204.714844 C 635.46875 203.648438 634.117188 202.644531 632.71875 201.710938 C 631.316406 200.777344 629.875 199.910156 628.390625 199.117188 C 626.90625 198.324219 625.386719 197.605469 623.832031 196.960938 C 622.277344 196.316406 620.695312 195.75 619.085938 195.261719 C 617.472656 194.773438 615.84375 194.367188 614.191406 194.039062 C 612.542969 193.710938 610.878906 193.460938 609.203125 193.296875 C 607.527344 193.132812 605.851562 193.050781 604.167969 193.050781 L 295.832031 193.050781 C 294.148438 193.050781 292.472656 193.132812 290.796875 193.296875 C 289.121094 193.460938 287.457031 193.710938 285.808594 194.039062 C 284.15625 194.367188 282.527344 194.773438 280.914062 195.261719 C 279.304688 195.75 277.722656 196.316406 276.167969 196.960938 C 274.613281 197.605469 273.09375 198.324219 271.609375 199.117188 C 270.125 199.910156 268.683594 200.777344 267.28125 201.710938 C 265.882812 202.644531 264.53125 203.648438 263.230469 204.714844 C 261.929688 205.78125 260.683594 206.910156 259.496094 208.101562 C 258.304688 209.292969 257.175781 210.539062 256.109375 211.839844 C 255.039062 213.140625 254.039062 214.488281 253.105469 215.890625 C 252.167969 217.289062 251.304688 218.730469 250.511719 220.214844 C 249.71875 221.699219 249 223.21875 248.355469 224.773438 C 247.710938 226.328125 247.144531 227.910156 246.65625 229.523438 C 246.167969 231.132812 245.757812 232.761719 245.429688 234.414062 C 245.101562 236.0625 244.855469 237.726562 244.691406 239.402344 C 244.527344 241.078125 244.445312 242.757812 244.445312 244.4375 L 167.359375 244.4375 L 167.359375 231.59375 C 167.359375 230.75 167.277344 229.914062 167.113281 229.085938 C 166.949219 228.257812 166.703125 227.453125 166.382812 226.675781 C 166.058594 225.894531 165.664062 225.15625 165.195312 224.453125 C 164.726562 223.753906 164.195312 223.105469 163.597656 222.507812 C 163 221.910156 162.351562 221.378906 161.652344 220.910156 C 160.949219 220.441406 160.207031 220.046875 159.429688 219.722656 C 158.648438 219.398438 157.847656 219.15625 157.019531 218.992188 C 156.191406 218.828125 155.355469 218.746094 154.511719 218.746094 L 103.125 218.746094 C 102.28125 218.746094 101.445312 218.828125 100.617188 218.992188 C 99.789062 219.15625 98.988281 219.398438 98.207031 219.722656 C 97.429688 220.046875 96.6875 220.441406 95.984375 220.910156 C 95.285156 221.378906 94.636719 221.910156 94.039062 222.507812 C 93.441406 223.105469 92.910156 223.753906 92.441406 224.453125 C 91.972656 225.15625 91.578125 225.894531 91.253906 226.675781 C 90.933594 227.453125 90.6875 228.257812 90.523438 229.085938 C 90.359375 229.914062 90.277344 230.75 90.277344 231.59375 L 90.277344 282.980469 C 90.277344 283.824219 90.359375 284.660156 90.523438 285.488281 C 90.6875 286.316406 90.933594 287.117188 91.253906 287.898438 C 91.578125 288.675781 91.972656 289.417969 92.441406 290.117188 C 92.910156 290.820312 93.441406 291.46875 94.039062 292.066406 C 94.636719 292.660156 95.285156 293.195312 95.984375 293.664062 C 96.6875 294.132812 97.429688 294.527344 98.207031 294.851562 C 98.988281 295.171875 99.789062 295.417969 100.617188 295.582031 C 101.445312 295.746094 102.28125 295.828125 103.125 295.828125 L 154.511719 295.828125 C 155.355469 295.828125 156.191406 295.746094 157.019531 295.582031 C 157.847656 295.417969 158.648438 295.171875 159.429688 294.851562 C 160.207031 294.527344 160.949219 294.132812 161.652344 293.664062 C 162.351562 293.195312 163 292.660156 163.597656 292.066406 C 164.195312 291.46875 164.726562 290.820312 165.195312 290.117188 C 165.664062 289.417969 166.058594 288.675781 166.382812 287.898438 C 166.703125 287.117188 166.949219 286.316406 167.113281 285.488281 C 167.277344 284.660156 167.359375 283.824219 167.359375 282.980469 L 167.359375 270.132812 L 244.445312 270.132812 L 244.445312 501.382812 C 244.445312 502.226562 244.484375 503.066406 244.566406 503.902344 C 244.648438 504.742188 244.773438 505.570312 244.9375 506.398438 C 245.101562 507.222656 245.304688 508.039062 245.550781 508.84375 C 245.792969 509.648438 246.078125 510.441406 246.398438 511.21875 C 246.722656 511.996094 247.082031 512.753906 247.476562 513.496094 C 247.875 514.238281 248.304688 514.960938 248.773438 515.660156 C 249.242188 516.359375 249.742188 517.035156 250.277344 517.683594 C 250.808594 518.335938 251.375 518.957031 251.96875 519.554688 C 252.566406 520.148438 253.1875 520.710938 253.835938 521.246094 C 254.488281 521.78125 255.164062 522.28125 255.863281 522.75 C 256.5625 523.214844 257.285156 523.648438 258.027344 524.042969 C 258.769531 524.441406 259.527344 524.800781 260.304688 525.121094 C 261.082031 525.445312 261.875 525.726562 262.679688 525.972656 C 263.484375 526.214844 264.300781 526.421875 265.125 526.585938 C 265.949219 526.75 266.78125 526.871094 267.621094 526.957031 C 268.457031 527.039062 269.296875 527.078125 270.136719 527.078125 L 321.527344 527.078125 L 321.527344 681.246094 C 321.527344 682.085938 321.570312 682.925781 321.652344 683.765625 C 321.734375 684.601562 321.855469 685.433594 322.019531 686.257812 C 322.183594 687.085938 322.390625 687.898438 322.632812 688.703125 C 322.878906 689.511719 323.160156 690.300781 323.484375 691.078125 C 323.804688 691.855469 324.164062 692.617188 324.5625 693.359375 C 324.957031 694.101562 325.390625 694.820312 325.859375 695.519531 C 326.324219 696.222656 326.824219 696.894531 327.359375 697.546875 C 327.894531 698.195312 328.457031 698.820312 329.054688 699.414062 C 329.648438 700.011719 330.269531 700.574219 330.921875 701.109375 C 331.570312 701.640625 332.246094 702.144531 332.945312 702.609375 C 333.644531 703.078125 334.367188 703.511719 335.109375 703.90625 C 335.851562 704.304688 336.613281 704.664062 337.390625 704.984375 C 338.167969 705.308594 338.957031 705.589844 339.761719 705.835938 C 340.570312 706.078125 341.382812 706.28125 342.210938 706.445312 C 343.035156 706.609375 343.867188 706.734375 344.703125 706.816406 C 345.539062 706.898438 346.378906 706.941406 347.222656 706.941406 L 629.863281 706.941406 C 630.703125 706.941406 631.542969 706.898438 632.378906 706.816406 C 633.21875 706.734375 634.050781 706.609375 634.875 706.445312 C 635.699219 706.28125 636.515625 706.078125 637.320312 705.835938 C 638.125 705.589844 638.917969 705.308594 639.695312 704.984375 C 640.472656 704.664062 641.230469 704.304688 641.972656 703.90625 C 642.714844 703.511719 643.4375 703.078125 644.136719 702.609375 C 644.835938 702.144531 645.511719 701.640625 646.164062 701.109375 C 646.8125 700.574219 647.433594 700.011719 648.03125 699.414062 C 648.625 698.820312 649.191406 698.195312 649.722656 697.546875 C 650.257812 696.894531 650.757812 696.222656 651.226562 695.519531 C 651.695312 694.820312 652.125 694.101562 652.523438 693.359375 C 652.917969 692.617188 653.277344 691.855469 653.601562 691.078125 C 653.921875 690.300781 654.207031 689.511719 654.449219 688.703125 C 654.695312 687.898438 654.898438 687.085938 655.0625 686.257812 C 655.226562 685.433594 655.351562 684.601562 655.433594 683.765625 C 655.515625 682.925781 655.554688 682.085938 655.554688 681.246094 L 655.554688 270.132812 L 732.640625 270.132812 L 732.640625 282.980469 C 732.640625 283.824219 732.722656 284.660156 732.886719 285.488281 C 733.050781 286.316406 733.292969 287.117188 733.617188 287.898438 C 733.941406 288.675781 734.335938 289.417969 734.804688 290.117188 C 735.273438 290.820312 735.804688 291.46875 736.402344 292.066406 C 737 292.660156 737.648438 293.195312 738.347656 293.664062 C 739.050781 294.132812 739.792969 294.527344 740.570312 294.851562 C 741.351562 295.171875 742.152344 295.417969 742.980469 295.582031 C 743.808594 295.746094 744.644531 295.828125 745.488281 295.828125 L 796.875 295.828125 C 797.71875 295.828125 798.554688 295.746094 799.382812 295.582031 C 800.210938 295.417969 801.011719 295.171875 801.792969 294.851562 C 802.570312 294.527344 803.3125 294.132812 804.015625 293.664062 C 804.714844 293.195312 805.363281 292.660156 805.960938 292.066406 C 806.558594 291.46875 807.089844 290.820312 807.558594 290.117188 C 808.027344 289.417969 808.421875 288.675781 808.746094 287.898438 C 809.066406 287.117188 809.3125 286.316406 809.476562 285.488281 C 809.640625 284.660156 809.722656 283.824219 809.722656 282.980469 L 809.722656 231.59375 C 809.722656 230.75 809.640625 229.914062 809.476562 229.085938 C 809.3125 228.257812 809.066406 227.453125 808.746094 226.675781 C 808.421875 225.894531 808.027344 225.15625 807.558594 224.453125 C 807.089844 223.753906 806.558594 223.105469 805.960938 222.507812 C 805.363281 221.910156 804.714844 221.378906 804.015625 220.910156 C 803.3125 220.441406 802.570312 220.046875 801.792969 219.722656 C 801.011719 219.398438 800.210938 219.15625 799.382812 218.992188 C 798.554688 218.828125 797.71875 218.746094 796.875 218.746094 Z M 141.664062 270.132812 L 115.972656 270.132812 L 115.972656 244.4375 L 141.664062 244.4375 Z M 629.863281 244.4375 L 629.863281 552.773438 L 347.222656 552.773438 L 347.222656 244.4375 C 347.203125 239.910156 346.582031 235.464844 345.363281 231.105469 C 344.140625 226.746094 342.363281 222.625 340.027344 218.746094 L 604.167969 218.746094 C 605.007812 218.746094 605.847656 218.785156 606.6875 218.867188 C 607.523438 218.949219 608.355469 219.074219 609.179688 219.238281 C 610.003906 219.402344 610.820312 219.605469 611.625 219.851562 C 612.429688 220.09375 613.222656 220.378906 614 220.699219 C 614.777344 221.023438 615.539062 221.382812 616.28125 221.777344 C 617.023438 222.175781 617.742188 222.605469 618.441406 223.074219 C 619.140625 223.542969 619.816406 224.042969 620.46875 224.578125 C 621.117188 225.109375 621.742188 225.675781 622.335938 226.269531 C 622.929688 226.867188 623.496094 227.488281 624.03125 228.136719 C 624.5625 228.789062 625.0625 229.464844 625.53125 230.164062 C 626 230.863281 626.429688 231.585938 626.828125 232.328125 C 627.222656 233.070312 627.582031 233.828125 627.90625 234.605469 C 628.226562 235.382812 628.511719 236.175781 628.753906 236.980469 C 629 237.785156 629.203125 238.601562 629.367188 239.425781 C 629.53125 240.25 629.65625 241.082031 629.738281 241.921875 C 629.820312 242.757812 629.863281 243.597656 629.863281 244.4375 Z M 629.863281 604.164062 L 347.222656 604.164062 L 347.222656 578.46875 L 629.863281 578.46875 Z M 295.832031 218.746094 C 296.675781 218.746094 297.515625 218.785156 298.351562 218.867188 C 299.1875 218.949219 300.019531 219.074219 300.84375 219.238281 C 301.671875 219.402344 302.484375 219.605469 303.292969 219.851562 C 304.097656 220.09375 304.886719 220.378906 305.664062 220.699219 C 306.441406 221.023438 307.203125 221.382812 307.945312 221.777344 C 308.6875 222.175781 309.410156 222.605469 310.109375 223.074219 C 310.808594 223.542969 311.484375 224.042969 312.132812 224.578125 C 312.785156 225.109375 313.40625 225.675781 314 226.269531 C 314.597656 226.867188 315.160156 227.488281 315.695312 228.136719 C 316.230469 228.789062 316.730469 229.464844 317.195312 230.164062 C 317.664062 230.863281 318.097656 231.585938 318.492188 232.328125 C 318.890625 233.070312 319.25 233.828125 319.570312 234.605469 C 319.894531 235.382812 320.175781 236.175781 320.421875 236.980469 C 320.664062 237.785156 320.871094 238.601562 321.035156 239.425781 C 321.199219 240.25 321.320312 241.082031 321.402344 241.921875 C 321.484375 242.757812 321.527344 243.597656 321.527344 244.4375 L 270.136719 244.4375 C 270.136719 243.597656 270.179688 242.757812 270.261719 241.921875 C 270.34375 241.082031 270.46875 240.25 270.632812 239.425781 C 270.796875 238.601562 271 237.785156 271.246094 236.980469 C 271.488281 236.175781 271.773438 235.382812 272.09375 234.605469 C 272.417969 233.828125 272.777344 233.070312 273.171875 232.328125 C 273.570312 231.585938 274 230.863281 274.46875 230.164062 C 274.9375 229.464844 275.4375 228.789062 275.96875 228.136719 C 276.503906 227.488281 277.070312 226.867188 277.664062 226.269531 C 278.257812 225.675781 278.882812 225.109375 279.53125 224.578125 C 280.183594 224.042969 280.859375 223.542969 281.558594 223.074219 C 282.257812 222.605469 282.976562 222.175781 283.71875 221.777344 C 284.460938 221.382812 285.222656 221.023438 286 220.699219 C 286.777344 220.378906 287.570312 220.09375 288.375 219.851562 C 289.179688 219.605469 289.996094 219.402344 290.820312 219.238281 C 291.644531 219.074219 292.476562 218.949219 293.3125 218.867188 C 294.152344 218.785156 294.992188 218.746094 295.832031 218.746094 Z M 270.136719 501.382812 L 270.136719 270.132812 L 321.527344 270.132812 L 321.527344 501.382812 Z M 347.222656 681.246094 L 347.222656 629.855469 L 629.863281 629.855469 L 629.863281 681.246094 Z M 784.027344 270.132812 L 758.335938 270.132812 L 758.335938 244.4375 L 784.027344 244.4375 Z M 784.027344 270.132812 " fill-opacity="1" fill-rule="nonzero"/></g></svg>