<svg xmlns="http://www.w3.org/2000/svg" xmlns:xlink="http://www.w3.org/1999/xlink" width="1200" zoomAndPan="magnify" viewBox="0 0 900 899.99999" height="1200" preserveAspectRatio="xMidYMid meet" version="1.0"><defs><clipPath id="c2bafc4a8b"><path d="M 536 559 L 677 559 L 677 817.5 L 536 817.5 Z M 536 559 " clip-rule="nonzero"/></clipPath><clipPath id="3e6b46cd58"><path d="M 97.648438 533 L 399 533 L 399 695 L 97.648438 695 Z M 97.648438 533 " clip-rule="nonzero"/></clipPath><clipPath id="207c0f1e8b"><path d="M 138 656 L 358 656 L 358 817.5 L 138 817.5 Z M 138 656 " clip-rule="nonzero"/></clipPath><clipPath id="6f6e6a7dba"><path d="M 97.648438 488 L 399 488 L 399 601 L 97.648438 601 Z M 97.648438 488 " clip-rule="nonzero"/></clipPath></defs><path fill="#3f6b3a" d="M 606.4375 590.414062 C 494.25 590.414062 402.980469 499.140625 402.980469 386.953125 C 402.980469 380.871094 407.914062 375.9375 413.996094 375.9375 L 798.878906 375.9375 C 804.964844 375.9375 809.898438 380.871094 809.898438 386.953125 C 809.898438 499.140625 718.625 590.414062 606.4375 590.414062 Z M 425.347656 397.972656 C 431.0625 492.898438 510.101562 568.378906 606.4375 568.378906 C 702.773438 568.378906 781.816406 492.898438 787.527344 397.972656 Z M 425.347656 397.972656 " fill-opacity="1" fill-rule="nonzero"/><path fill="#3f6b3a" d="M 606.4375 543.859375 C 545.589844 543.859375 496.089844 494.359375 496.089844 433.511719 C 496.089844 427.425781 501.023438 422.492188 507.109375 422.492188 C 513.195312 422.492188 518.125 427.425781 518.125 433.511719 C 518.125 482.207031 557.742188 521.824219 606.4375 521.824219 C 655.132812 521.824219 694.75 482.207031 694.75 433.511719 C 694.75 427.425781 699.683594 422.492188 705.769531 422.492188 C 711.851562 422.492188 716.785156 427.425781 716.785156 433.511719 C 716.785156 494.355469 667.285156 543.859375 606.4375 543.859375 Z M 606.4375 543.859375 " fill-opacity="1" fill-rule="nonzero"/><path fill="#3f6b3a" d="M 642.519531 397.972656 L 595.1875 397.972656 C 589.105469 397.972656 584.171875 393.039062 584.171875 386.957031 L 584.171875 257.660156 C 584.171875 253.574219 580.84375 250.246094 576.757812 250.246094 C 572.671875 250.246094 569.34375 253.574219 569.34375 257.660156 L 569.34375 275.699219 C 569.34375 281.785156 564.410156 286.71875 558.324219 286.71875 L 510.996094 286.71875 C 504.910156 286.71875 499.976562 281.785156 499.976562 275.699219 L 499.976562 257.660156 C 499.976562 215.324219 534.421875 180.878906 576.757812 180.878906 C 619.09375 180.878906 653.539062 215.324219 653.539062 257.660156 L 653.539062 386.957031 C 653.539062 393.039062 648.605469 397.972656 642.519531 397.972656 Z M 606.207031 375.9375 L 631.5 375.9375 L 631.5 257.660156 C 631.5 227.472656 606.945312 202.914062 576.757812 202.914062 C 546.574219 202.914062 522.015625 227.472656 522.015625 257.660156 L 522.015625 264.683594 L 547.308594 264.683594 L 547.308594 257.660156 C 547.308594 241.421875 560.523438 228.207031 576.757812 228.207031 C 592.996094 228.207031 606.207031 241.421875 606.207031 257.660156 Z M 606.207031 375.9375 " fill-opacity="1" fill-rule="nonzero"/><path fill="#3f6b3a" d="M 520.742188 397.972656 L 450.078125 397.972656 C 443.996094 397.972656 439.0625 393.039062 439.0625 386.957031 L 439.0625 358.199219 C 439.0625 342.28125 452.011719 329.332031 467.929688 329.332031 L 502.890625 329.332031 C 518.808594 329.332031 531.757812 342.28125 531.757812 358.199219 L 531.757812 386.957031 C 531.757812 393.039062 526.824219 397.972656 520.742188 397.972656 Z M 461.097656 375.9375 L 509.722656 375.9375 L 509.722656 358.199219 C 509.722656 354.429688 506.660156 351.367188 502.890625 351.367188 L 467.929688 351.367188 C 464.164062 351.367188 461.097656 354.429688 461.097656 358.199219 Z M 461.097656 375.9375 " fill-opacity="1" fill-rule="nonzero"/><path fill="#3f6b3a" d="M 762.796875 397.972656 L 692.132812 397.972656 C 686.050781 397.972656 681.117188 393.039062 681.117188 386.957031 L 681.117188 358.199219 C 681.117188 342.28125 694.066406 329.332031 709.984375 329.332031 L 744.945312 329.332031 C 760.863281 329.332031 773.8125 342.28125 773.8125 358.199219 L 773.8125 386.957031 C 773.8125 393.039062 768.882812 397.972656 762.796875 397.972656 Z M 703.152344 375.9375 L 751.777344 375.9375 L 751.777344 358.199219 C 751.777344 354.429688 748.714844 351.367188 744.945312 351.367188 L 709.984375 351.367188 C 706.214844 351.367188 703.152344 354.429688 703.152344 358.199219 Z M 703.152344 375.9375 " fill-opacity="1" fill-rule="nonzero"/><g clip-path="url(#c2bafc4a8b)"><path fill="#3f6b3a" d="M 665.074219 817.433594 L 547.804688 817.433594 C 541.71875 817.433594 536.785156 812.503906 536.785156 806.417969 L 536.785156 570.308594 C 536.785156 564.222656 541.71875 559.289062 547.804688 559.289062 C 553.886719 559.289062 558.820312 564.222656 558.820312 570.308594 L 558.820312 795.398438 L 654.054688 795.398438 L 654.054688 570.308594 C 654.054688 564.222656 658.988281 559.289062 665.070312 559.289062 C 671.15625 559.289062 676.089844 564.222656 676.089844 570.308594 L 676.089844 806.417969 C 676.089844 812.5 671.15625 817.433594 665.074219 817.433594 Z M 665.074219 817.433594 " fill-opacity="1" fill-rule="nonzero"/></g><g clip-path="url(#3e6b46cd58)"><path fill="#3f6b3a" d="M 247.839844 694.652344 C 165.003906 694.652344 97.613281 627.261719 97.613281 544.425781 C 97.613281 538.34375 102.546875 533.410156 108.628906 533.410156 C 114.714844 533.410156 119.648438 538.34375 119.648438 544.425781 C 119.648438 615.113281 177.15625 672.617188 247.839844 672.617188 C 318.523438 672.617188 376.027344 615.113281 376.027344 544.425781 C 376.027344 538.34375 380.960938 533.410156 387.046875 533.410156 C 393.128906 533.410156 398.0625 538.34375 398.0625 544.425781 C 398.066406 627.261719 330.671875 694.652344 247.839844 694.652344 Z M 247.839844 694.652344 " fill-opacity="1" fill-rule="nonzero"/></g><path fill="#3f6b3a" d="M 355.335938 526.714844 C 349.25 526.714844 344.316406 521.78125 344.316406 515.695312 L 344.316406 320.527344 C 344.316406 306.136719 332.613281 294.429688 318.222656 294.429688 L 177.453125 294.429688 C 163.066406 294.429688 151.359375 306.136719 151.359375 320.527344 L 151.359375 515.695312 C 151.359375 521.78125 146.425781 526.714844 140.34375 526.714844 C 134.257812 526.714844 129.324219 521.78125 129.324219 515.695312 L 129.324219 320.527344 C 129.324219 293.988281 150.914062 272.394531 177.457031 272.394531 L 318.222656 272.394531 C 344.761719 272.394531 366.355469 293.988281 366.355469 320.527344 L 366.355469 515.695312 C 366.351562 521.78125 361.417969 526.714844 355.335938 526.714844 Z M 355.335938 526.714844 " fill-opacity="1" fill-rule="nonzero"/><g clip-path="url(#207c0f1e8b)"><path fill="#3f6b3a" d="M 345.980469 817.433594 L 149.699219 817.433594 C 146.320312 817.433594 143.125 815.882812 141.039062 813.230469 C 138.949219 810.574219 138.195312 807.105469 138.988281 803.820312 L 172.582031 665.199219 C 174.011719 659.285156 179.972656 655.652344 185.882812 657.085938 C 191.796875 658.519531 195.429688 664.472656 194 670.386719 L 163.707031 795.398438 L 331.976562 795.398438 L 301.683594 670.386719 C 300.25 664.472656 303.882812 658.519531 309.796875 657.085938 C 315.710938 655.652344 321.667969 659.285156 323.101562 665.199219 L 356.691406 803.820312 C 357.488281 807.105469 356.734375 810.570312 354.644531 813.230469 C 352.550781 815.882812 349.359375 817.433594 345.980469 817.433594 Z M 345.980469 817.433594 " fill-opacity="1" fill-rule="nonzero"/></g><g clip-path="url(#6f6e6a7dba)"><path fill="#3f6b3a" d="M 247.839844 600.667969 C 173.1875 600.667969 97.613281 581.347656 97.613281 544.425781 C 97.613281 507.503906 173.1875 488.1875 247.839844 488.1875 C 322.492188 488.1875 398.066406 507.503906 398.066406 544.425781 C 398.066406 581.347656 322.492188 600.667969 247.839844 600.667969 Z M 247.839844 510.222656 C 164.898438 510.222656 119.648438 532.820312 119.648438 544.425781 C 119.648438 556.035156 164.898438 578.628906 247.839844 578.628906 C 330.78125 578.628906 376.027344 556.035156 376.027344 544.425781 C 376.027344 532.816406 330.78125 510.222656 247.839844 510.222656 Z M 247.839844 510.222656 " fill-opacity="1" fill-rule="nonzero"/></g><path fill="#3f6b3a" d="M 277.453125 511.246094 C 274.273438 511.246094 271.113281 509.875 268.9375 507.226562 C 265.074219 502.527344 265.75 495.582031 270.449219 491.71875 C 287.394531 477.789062 297.917969 450.714844 297.917969 421.0625 C 297.917969 377.988281 274.984375 341.59375 247.839844 341.59375 C 220.695312 341.59375 197.757812 377.988281 197.757812 421.0625 C 197.757812 450.714844 208.285156 477.789062 225.226562 491.71875 C 229.925781 495.582031 230.605469 502.527344 226.742188 507.226562 C 222.875 511.925781 215.933594 512.605469 211.230469 508.738281 C 189.328125 490.734375 175.722656 457.136719 175.722656 421.0625 C 175.722656 394.714844 182.746094 369.800781 195.503906 350.910156 C 209.15625 330.691406 227.742188 319.558594 247.839844 319.558594 C 267.933594 319.558594 286.519531 330.691406 300.171875 350.910156 C 312.929688 369.804688 319.953125 394.71875 319.953125 421.0625 C 319.953125 457.136719 306.347656 490.734375 284.445312 508.738281 C 282.394531 510.425781 279.917969 511.246094 277.453125 511.246094 Z M 277.453125 511.246094 " fill-opacity="1" fill-rule="nonzero"/><path fill="#3f6b3a" d="M 469.902344 252.089844 L 266.464844 252.089844 C 260.378906 252.089844 255.445312 247.15625 255.445312 241.070312 L 255.445312 101.25 C 255.445312 95.167969 260.378906 90.234375 266.464844 90.234375 L 469.902344 90.234375 C 475.988281 90.234375 480.921875 95.167969 480.921875 101.25 L 480.921875 241.070312 C 480.921875 247.15625 475.988281 252.089844 469.902344 252.089844 Z M 277.480469 230.050781 L 458.882812 230.050781 L 458.882812 112.269531 L 277.480469 112.269531 Z M 277.480469 230.050781 " fill-opacity="1" fill-rule="nonzero"/><path fill="#3f6b3a" d="M 314.875 209.617188 C 312.054688 209.617188 309.234375 208.542969 307.082031 206.390625 C 302.777344 202.085938 302.777344 195.109375 307.082031 190.808594 L 361.957031 135.929688 C 366.257812 131.628906 373.238281 131.628906 377.539062 135.929688 C 381.84375 140.234375 381.84375 147.210938 377.539062 151.511719 L 322.664062 206.390625 C 320.515625 208.542969 317.695312 209.617188 314.875 209.617188 Z M 314.875 209.617188 " fill-opacity="1" fill-rule="nonzero"/><path fill="#3f6b3a" d="M 393.652344 196.097656 C 390.832031 196.097656 388.011719 195.023438 385.859375 192.871094 C 381.558594 188.570312 381.558594 181.589844 385.859375 177.289062 L 413.703125 149.449219 C 418.007812 145.144531 424.984375 145.144531 429.285156 149.449219 C 433.589844 153.75 433.589844 160.726562 429.285156 165.03125 L 401.441406 192.871094 C 399.289062 195.023438 396.472656 196.097656 393.652344 196.097656 Z M 393.652344 196.097656 " fill-opacity="1" fill-rule="nonzero"/></svg>