<svg xmlns="http://www.w3.org/2000/svg" xmlns:xlink="http://www.w3.org/1999/xlink" width="1200" zoomAndPan="magnify" viewBox="0 0 900 899.99999" height="1200" preserveAspectRatio="xMidYMid meet" version="1.0"><defs><clipPath id="ede0f78f16"><path d="M 95.914062 229.5 L 804.085938 229.5 L 804.085938 670.5 L 95.914062 670.5 Z M 95.914062 229.5 " clip-rule="nonzero"/></clipPath></defs><g clip-path="url(#ede0f78f16)"><path fill="#3f6b3a" d="M 669.734375 243.332031 L 712.484375 243.332031 C 727.824219 243.332031 740.273438 255.78125 740.273438 271.121094 C 740.273438 271.121094 740.273438 271.121094 740.273438 271.183594 L 740.273438 629.292969 C 740.273438 644.636719 727.886719 657.082031 712.484375 657.082031 L 669.734375 657.082031 Z M 595.355469 243.332031 L 655.839844 243.332031 L 655.839844 657.082031 L 595.355469 657.082031 Z M 318.539062 243.332031 L 581.460938 243.332031 L 581.460938 657.082031 L 318.539062 657.082031 Z M 244.160156 243.332031 L 304.644531 243.332031 L 304.644531 657.082031 L 244.160156 657.082031 Z M 187.515625 243.332031 L 230.265625 243.332031 L 230.265625 657.082031 L 187.515625 657.082031 C 172.175781 657.082031 159.726562 644.636719 159.726562 629.292969 L 159.726562 271.183594 C 159.726562 255.78125 172.175781 243.332031 187.515625 243.332031 Z M 187.515625 229.4375 C 167.773438 229.4375 150.734375 243.332031 146.710938 262.695312 L 121.753906 262.695312 C 117.917969 262.820312 114.898438 266.027344 115.023438 269.863281 C 115.152344 273.574219 118.105469 276.464844 121.753906 276.589844 L 145.832031 276.589844 L 145.832031 295.386719 L 102.890625 295.386719 C 99.054688 295.515625 96.039062 298.71875 96.164062 302.554688 C 96.289062 306.265625 99.246094 309.15625 102.890625 309.28125 L 145.832031 309.28125 L 145.832031 328.082031 L 121.753906 328.082031 C 117.917969 328.207031 114.898438 331.414062 115.023438 335.25 C 115.152344 338.957031 118.105469 341.851562 121.753906 341.976562 L 145.832031 341.976562 L 145.832031 360.773438 L 102.890625 360.773438 C 99.054688 360.898438 96.039062 364.105469 96.164062 367.941406 C 96.289062 371.652344 99.246094 374.542969 102.890625 374.667969 L 145.832031 374.667969 L 145.832031 393.464844 L 121.753906 393.464844 C 117.917969 393.59375 114.898438 396.863281 115.023438 400.695312 C 115.152344 404.34375 118.105469 407.234375 121.753906 407.359375 L 145.832031 407.359375 L 145.832031 426.160156 L 102.890625 426.160156 C 99.054688 426.285156 96.039062 429.554688 96.164062 433.390625 C 96.289062 437.035156 99.246094 439.929688 102.890625 440.054688 L 145.832031 440.054688 L 145.832031 458.851562 L 121.753906 458.851562 C 117.917969 458.976562 114.898438 462.246094 115.023438 466.082031 C 115.152344 469.730469 118.105469 472.621094 121.753906 472.746094 L 145.832031 472.746094 L 145.832031 491.546875 L 102.890625 491.546875 C 99.054688 491.671875 96.039062 494.941406 96.164062 498.773438 C 96.289062 502.421875 99.246094 505.3125 102.890625 505.4375 L 145.832031 505.4375 L 145.832031 524.238281 L 121.753906 524.238281 C 117.917969 524.363281 114.898438 527.632812 115.023438 531.46875 C 115.152344 535.113281 118.105469 538.007812 121.753906 538.132812 L 145.832031 538.132812 L 145.832031 556.929688 L 102.890625 556.929688 C 99.054688 557.054688 96.039062 560.324219 96.164062 564.160156 C 96.289062 567.808594 99.246094 570.699219 102.890625 570.824219 L 145.832031 570.824219 L 145.832031 589.625 L 121.753906 589.625 C 117.917969 589.75 114.898438 593.019531 115.023438 596.851562 C 115.152344 600.5 118.105469 603.390625 121.753906 603.515625 L 145.832031 603.515625 L 145.832031 622.316406 L 102.890625 622.316406 C 99.054688 622.316406 95.914062 625.460938 95.914062 629.292969 C 95.914062 633.128906 99.054688 636.273438 102.890625 636.273438 L 146.398438 636.273438 C 149.792969 656.328125 167.144531 671.039062 187.515625 670.976562 L 712.484375 670.976562 C 732.855469 671.039062 750.207031 656.328125 753.601562 636.273438 L 797.109375 636.273438 C 800.945312 636.273438 804.085938 633.128906 804.085938 629.292969 C 804.085938 625.460938 800.945312 622.316406 797.109375 622.316406 L 754.167969 622.316406 L 754.167969 603.515625 L 778.246094 603.515625 C 782.082031 603.390625 785.101562 600.183594 784.976562 596.351562 C 784.847656 592.703125 781.894531 589.75 778.246094 589.625 L 754.167969 589.625 L 754.167969 570.824219 L 797.109375 570.824219 C 800.945312 570.699219 803.960938 567.492188 803.835938 563.65625 C 803.710938 560.011719 800.753906 557.054688 797.109375 556.929688 L 754.167969 556.929688 L 754.167969 538.132812 L 778.246094 538.132812 C 782.082031 538.007812 785.101562 534.800781 784.976562 530.964844 C 784.847656 527.316406 781.894531 524.363281 778.246094 524.238281 L 754.167969 524.238281 L 754.167969 505.4375 L 797.109375 505.4375 C 800.945312 505.3125 803.960938 502.105469 803.835938 498.273438 C 803.710938 494.625 800.753906 491.671875 797.109375 491.546875 L 754.167969 491.546875 L 754.167969 472.746094 L 778.246094 472.746094 C 782.082031 472.621094 785.101562 469.414062 784.976562 465.578125 C 784.847656 461.933594 781.894531 458.976562 778.246094 458.851562 L 754.167969 458.851562 L 754.167969 440.054688 L 797.109375 440.054688 C 800.945312 439.929688 803.960938 436.722656 803.835938 432.886719 C 803.710938 429.238281 800.753906 426.285156 797.109375 426.160156 L 754.167969 426.160156 L 754.167969 407.359375 L 778.246094 407.359375 C 782.082031 407.234375 785.101562 404.027344 784.976562 400.195312 C 784.847656 396.546875 781.894531 393.59375 778.246094 393.464844 L 754.167969 393.464844 L 754.167969 374.667969 L 797.109375 374.667969 C 800.945312 374.542969 803.960938 371.335938 803.835938 367.5 C 803.710938 363.855469 800.753906 360.898438 797.109375 360.773438 L 754.167969 360.773438 L 754.167969 341.976562 L 778.246094 341.976562 C 782.082031 341.851562 785.101562 338.644531 784.976562 334.808594 C 784.847656 331.160156 781.894531 328.207031 778.246094 328.082031 L 754.167969 328.082031 L 754.167969 309.28125 L 797.109375 309.28125 C 800.945312 309.15625 803.960938 305.949219 803.835938 302.117188 C 803.710938 298.46875 800.753906 295.515625 797.109375 295.386719 L 754.167969 295.386719 L 754.167969 276.589844 L 778.246094 276.589844 C 782.082031 276.464844 785.101562 273.257812 784.976562 269.421875 C 784.847656 265.777344 781.894531 262.820312 778.246094 262.695312 L 753.289062 262.695312 C 749.265625 243.332031 732.226562 229.4375 712.484375 229.4375 L 187.515625 229.4375 " fill-opacity="1" fill-rule="nonzero"/></g></svg>