<svg xmlns="http://www.w3.org/2000/svg" xmlns:xlink="http://www.w3.org/1999/xlink" width="1200" zoomAndPan="magnify" viewBox="0 0 900 899.99999" height="1200" preserveAspectRatio="xMidYMid meet" version="1.0"><defs><clipPath id="fd84b09fb0"><path d="M 236 357 L 805.800781 357 L 805.800781 697 L 236 697 Z M 236 357 " clip-rule="nonzero"/></clipPath><clipPath id="f77193ffb9"><path d="M 627 674 L 805.800781 674 L 805.800781 810 L 627 810 Z M 627 674 " clip-rule="nonzero"/></clipPath><clipPath id="e5f66d5465"><path d="M 94.050781 116 L 160 116 L 160 251 L 94.050781 251 Z M 94.050781 116 " clip-rule="nonzero"/></clipPath></defs><path fill="#3f6b3a" d="M 638.460938 755.875 L 233.167969 755.875 C 220.527344 755.875 208.375 750.527344 199.785156 741.289062 C 191.195312 732.050781 186.820312 719.414062 187.792969 706.933594 L 202.539062 514.09375 C 204.160156 493.511719 204.324219 472.445312 203.1875 451.703125 L 186.011719 151.257812 C 185.039062 135.210938 190.710938 119.816406 201.730469 108.148438 C 212.75 96.480469 227.820312 90 243.863281 90 L 674.601562 90 C 680.597656 90 685.457031 94.863281 685.457031 100.859375 C 685.457031 106.851562 680.597656 111.714844 674.601562 111.714844 L 243.863281 111.714844 C 233.816406 111.714844 224.417969 115.765625 217.613281 123.058594 C 210.644531 130.351562 207.242188 139.914062 207.726562 149.960938 L 224.902344 450.40625 C 226.199219 472.121094 225.875 494.160156 224.257812 515.710938 L 209.507812 708.554688 C 209.023438 715.199219 211.292969 721.519531 215.828125 726.542969 C 220.367188 731.40625 226.523438 734.160156 233.167969 734.160156 L 638.460938 734.160156 C 644.457031 734.160156 649.320312 739.019531 649.320312 745.015625 C 649.320312 751.011719 644.457031 755.875 638.460938 755.875 Z M 638.460938 755.875 " fill-opacity="1" fill-rule="evenodd"/><path fill="#3f6b3a" d="M 711.222656 525.921875 C 705.226562 525.921875 700.367188 521.058594 700.367188 515.0625 L 700.367188 214.132812 C 700.367188 208.136719 705.226562 203.273438 711.222656 203.273438 C 717.21875 203.273438 722.082031 208.136719 722.082031 214.132812 L 722.082031 515.0625 C 722.082031 521.058594 717.21875 525.921875 711.222656 525.921875 Z M 711.222656 525.921875 " fill-opacity="1" fill-rule="evenodd"/><path fill="#3f6b3a" d="M 638.460938 506.636719 C 632.464844 506.636719 627.605469 501.777344 627.605469 495.78125 L 627.605469 137.320312 C 627.605469 111.390625 648.832031 90.160156 674.925781 90.160156 C 687.5625 90.160156 699.394531 95.023438 708.308594 103.9375 C 717.21875 112.847656 722.242188 124.679688 722.242188 137.320312 L 722.242188 150.769531 C 722.242188 156.765625 717.382812 161.628906 711.386719 161.628906 C 705.390625 161.628906 700.527344 156.765625 700.527344 150.769531 L 700.527344 137.320312 C 700.527344 130.511719 697.9375 124.191406 693.074219 119.332031 C 688.210938 114.46875 681.894531 111.878906 675.085938 111.878906 C 660.988281 111.878906 649.644531 123.222656 649.644531 137.15625 L 649.644531 495.617188 C 649.320312 501.777344 644.457031 506.636719 638.460938 506.636719 Z M 638.460938 506.636719 " fill-opacity="1" fill-rule="evenodd"/><path fill="#3f6b3a" d="M 638.460938 755.875 C 632.464844 755.875 627.605469 751.011719 627.605469 745.015625 L 627.605469 646.8125 C 627.605469 640.816406 632.464844 635.957031 638.460938 635.957031 C 644.457031 635.957031 649.320312 640.816406 649.320312 646.8125 L 649.320312 745.015625 C 649.320312 751.011719 644.457031 755.875 638.460938 755.875 Z M 638.460938 755.875 " fill-opacity="1" fill-rule="evenodd"/><g clip-path="url(#fd84b09fb0)"><path fill="#3f6b3a" d="M 628.414062 635.792969 L 635.382812 635.792969 C 656.449219 635.792969 677.515625 638.871094 697.613281 645.03125 L 783.824219 670.957031 L 783.824219 550.878906 L 687.886719 518.953125 C 665.847656 511.660156 643 506.800781 619.988281 504.53125 C 619.828125 504.53125 619.828125 504.53125 619.664062 504.53125 C 580.125 499.34375 547.875 474.226562 526.484375 431.769531 C 516.921875 412.648438 511.414062 394.171875 508.660156 382.503906 C 502.339844 385.421875 497.640625 389.472656 494.558594 394.820312 C 485.324219 410.863281 492.613281 434.363281 494.074219 438.898438 C 494.722656 441.007812 495.207031 442.625 495.53125 444.410156 C 498.609375 459.316406 493.425781 472.605469 481.109375 481.84375 C 472.84375 488.164062 462.3125 491.566406 451.453125 491.566406 L 296.53125 491.566406 C 290.699219 491.566406 285.835938 496.265625 285.835938 502.261719 L 285.835938 503.394531 C 285.835938 509.230469 290.699219 514.09375 296.53125 514.09375 L 438.164062 514.09375 C 444.160156 514.09375 449.023438 518.953125 449.023438 524.949219 C 449.023438 530.945312 444.160156 535.808594 438.164062 535.808594 L 269.144531 535.808594 C 263.308594 535.808594 258.449219 540.507812 258.449219 546.503906 L 258.449219 550.066406 C 258.449219 555.902344 263.308594 560.761719 269.144531 560.761719 L 438.164062 560.761719 C 444.160156 560.761719 449.023438 565.625 449.023438 571.621094 C 449.023438 577.617188 444.160156 582.476562 438.164062 582.476562 L 302.042969 582.476562 C 296.207031 582.476562 291.34375 587.175781 291.34375 593.171875 L 291.34375 595.929688 C 291.34375 601.761719 296.207031 606.625 302.042969 606.625 L 434.4375 606.625 C 440.433594 606.625 445.296875 611.484375 445.296875 617.480469 C 445.296875 623.476562 440.433594 628.339844 434.4375 628.339844 L 343.851562 628.339844 C 338.015625 628.339844 333.15625 633.039062 333.15625 639.035156 C 333.15625 644.867188 338.015625 649.730469 343.851562 649.730469 L 482.082031 649.730469 C 505.902344 649.730469 529.886719 647.460938 553.222656 643.246094 C 578.015625 638.0625 603.296875 635.792969 628.414062 635.792969 Z M 794.84375 696.5625 C 793.871094 696.5625 792.738281 696.402344 791.765625 696.078125 L 691.617188 665.933594 C 673.464844 660.425781 654.667969 657.671875 635.546875 657.671875 L 628.578125 657.671875 C 604.753906 657.671875 580.773438 659.9375 557.4375 664.152344 C 532.640625 668.691406 507.363281 671.121094 482.242188 671.121094 L 344.011719 671.121094 C 326.023438 671.121094 311.441406 656.535156 311.441406 638.710938 C 311.441406 634.984375 312.089844 631.417969 313.222656 628.015625 L 302.203125 628.015625 C 284.214844 628.015625 269.628906 613.429688 269.628906 595.605469 L 269.628906 592.847656 C 269.628906 589.121094 270.277344 585.558594 271.414062 582.152344 L 269.304688 582.152344 C 251.320312 582.152344 236.734375 567.570312 236.734375 549.742188 L 236.734375 546.179688 C 236.734375 529.324219 249.535156 515.550781 265.902344 513.929688 C 264.769531 510.527344 264.121094 506.960938 264.121094 503.070312 L 264.121094 501.9375 C 264.121094 484.113281 278.707031 469.527344 296.695312 469.527344 L 451.617188 469.527344 C 457.773438 469.527344 463.609375 467.582031 468.144531 464.179688 C 473.65625 459.964844 475.601562 455.105469 474.304688 448.460938 C 474.140625 447.648438 473.816406 446.839844 473.492188 445.707031 C 470.574219 437.117188 462.148438 407.460938 475.601562 383.800781 C 483.378906 370.1875 496.503906 361.4375 514.65625 357.550781 C 517.570312 356.902344 520.648438 357.550781 523.082031 359.332031 C 525.511719 361.113281 527.132812 363.707031 527.617188 366.785156 C 527.78125 367.757812 543.984375 472.445312 622.09375 482.816406 C 646.726562 485.246094 671.195312 490.433594 694.695312 498.210938 L 798.085938 532.726562 C 802.460938 534.1875 805.539062 538.398438 805.539062 543.097656 L 805.539062 685.867188 C 805.539062 689.269531 803.917969 692.511719 801.164062 694.617188 C 799.378906 695.753906 797.113281 696.5625 794.84375 696.5625 Z M 794.84375 696.5625 " fill-opacity="1" fill-rule="evenodd"/></g><g clip-path="url(#f77193ffb9)"><path fill="#3f6b3a" d="M 794.84375 810 C 792.414062 810 789.980469 809.191406 788.035156 807.570312 L 722.566406 755.226562 C 712.035156 746.800781 699.554688 741.128906 686.429688 738.535156 L 636.519531 728.972656 C 630.523438 727.839844 626.792969 722.167969 627.929688 716.171875 C 629.0625 710.335938 634.734375 706.449219 640.730469 707.582031 L 690.644531 717.144531 C 707.335938 720.386719 723.054688 727.675781 736.34375 738.210938 L 784.148438 776.457031 L 784.148438 685.707031 C 784.148438 679.710938 789.007812 674.847656 795.003906 674.847656 C 801 674.847656 805.863281 679.710938 805.863281 685.707031 L 805.863281 799.140625 C 805.863281 803.355469 803.433594 807.082031 799.703125 809.027344 C 797.921875 809.515625 796.464844 810 794.84375 810 Z M 794.84375 810 " fill-opacity="1" fill-rule="evenodd"/></g><path fill="#3f6b3a" d="M 200.597656 224.988281 L 149.0625 224.988281 C 143.066406 224.988281 138.207031 220.128906 138.207031 214.132812 L 138.207031 150.769531 C 138.207031 144.773438 143.066406 139.914062 149.0625 139.914062 L 197.03125 139.914062 C 203.027344 139.914062 207.886719 144.773438 207.886719 150.769531 C 207.886719 156.765625 203.027344 161.628906 197.03125 161.628906 L 160.082031 161.628906 L 160.082031 203.113281 L 200.757812 203.113281 C 206.753906 203.113281 211.617188 207.972656 211.617188 213.96875 C 211.453125 220.128906 206.59375 224.988281 200.597656 224.988281 Z M 200.597656 224.988281 " fill-opacity="1" fill-rule="evenodd"/><path fill="#3f6b3a" d="M 749.953125 224.988281 L 638.460938 224.988281 C 632.464844 224.988281 627.605469 220.128906 627.605469 214.132812 C 627.605469 208.136719 632.464844 203.273438 638.460938 203.273438 L 739.097656 203.273438 L 739.097656 161.628906 L 638.460938 161.628906 C 632.464844 161.628906 627.605469 156.765625 627.605469 150.769531 C 627.605469 144.773438 632.464844 139.914062 638.460938 139.914062 L 749.953125 139.914062 C 755.949219 139.914062 760.8125 144.773438 760.8125 150.769531 L 760.8125 214.132812 C 760.8125 220.128906 755.949219 224.988281 749.953125 224.988281 Z M 749.953125 224.988281 " fill-opacity="1" fill-rule="evenodd"/><g clip-path="url(#e5f66d5465)"><path fill="#3f6b3a" d="M 127.023438 138.292969 C 120.867188 138.292969 116.003906 143.316406 116.003906 149.3125 L 116.003906 217.699219 C 116.003906 223.855469 121.027344 228.71875 127.023438 228.71875 C 133.183594 228.71875 138.042969 223.695312 138.042969 217.699219 L 138.042969 149.3125 C 138.042969 143.316406 133.183594 138.292969 127.023438 138.292969 Z M 127.023438 250.757812 C 108.875 250.757812 94.128906 236.007812 94.128906 217.859375 L 94.128906 149.472656 C 94.128906 131.324219 108.875 116.578125 127.023438 116.578125 C 145.175781 116.578125 159.921875 131.324219 159.921875 149.472656 L 159.921875 217.859375 C 159.921875 236.007812 145.175781 250.757812 127.023438 250.757812 Z M 127.023438 250.757812 " fill-opacity="1" fill-rule="evenodd"/></g><path fill="#3f6b3a" d="M 771.992188 138.292969 C 765.835938 138.292969 760.972656 143.316406 760.972656 149.3125 L 760.972656 217.699219 C 760.972656 223.855469 765.996094 228.71875 771.992188 228.71875 C 778.152344 228.71875 783.011719 223.695312 783.011719 217.699219 L 783.011719 149.3125 C 783.011719 143.316406 777.988281 138.292969 771.992188 138.292969 Z M 771.992188 250.757812 C 753.84375 250.757812 739.097656 236.007812 739.097656 217.859375 L 739.097656 149.472656 C 739.097656 131.324219 753.84375 116.578125 771.992188 116.578125 C 790.144531 116.578125 804.890625 131.324219 804.890625 149.472656 L 804.890625 217.859375 C 804.890625 236.007812 790.144531 250.757812 771.992188 250.757812 Z M 771.992188 250.757812 " fill-opacity="1" fill-rule="evenodd"/></svg>