<svg xmlns="http://www.w3.org/2000/svg" xmlns:xlink="http://www.w3.org/1999/xlink" width="1200" zoomAndPan="magnify" viewBox="0 0 900 899.99999" height="1200" preserveAspectRatio="xMidYMid meet" version="1.0"><path fill="#3f6b3a" d="M 619.351562 695.90625 L 280.648438 695.90625 C 265.886719 695.90625 254.078125 684.09375 254.078125 669.332031 L 254.078125 200.71875 C 254.078125 185.957031 265.886719 173.726562 280.648438 173.726562 L 619.351562 173.726562 C 634.113281 173.726562 645.921875 185.957031 645.921875 200.71875 L 645.921875 669.332031 C 645.921875 684.09375 634.113281 695.90625 619.351562 695.90625 Z M 280.648438 190.597656 C 275.167969 190.597656 270.527344 195.238281 270.527344 200.71875 L 270.527344 669.332031 C 270.527344 674.816406 275.167969 679.035156 280.648438 679.035156 L 619.351562 679.035156 C 624.832031 679.035156 629.050781 674.816406 629.050781 669.332031 L 629.050781 200.71875 C 629.050781 195.238281 624.832031 190.597656 619.351562 190.597656 Z M 280.648438 190.597656 " fill-opacity="1" fill-rule="evenodd"/><path fill="#3f6b3a" d="M 720.15625 269.894531 L 637.488281 269.894531 C 632.847656 269.894531 629.050781 266.097656 629.050781 261.457031 C 629.050781 256.820312 632.847656 253.023438 637.488281 253.023438 L 720.15625 253.023438 C 724.796875 253.023438 728.59375 256.820312 728.59375 261.457031 C 728.59375 266.097656 724.796875 269.894531 720.15625 269.894531 Z M 262.089844 269.894531 L 179.84375 269.894531 C 175.203125 269.894531 171.40625 266.097656 171.40625 261.457031 C 171.40625 256.820312 175.203125 253.023438 179.84375 253.023438 L 262.089844 253.023438 C 266.730469 253.023438 270.527344 256.820312 270.527344 261.457031 C 270.527344 266.097656 266.730469 269.894531 262.089844 269.894531 Z M 720.15625 224.339844 L 637.488281 224.339844 C 632.847656 224.339844 629.050781 220.542969 629.050781 215.90625 C 629.050781 211.265625 632.847656 207.46875 637.488281 207.46875 L 720.15625 207.46875 C 724.796875 207.46875 728.59375 211.265625 728.59375 215.90625 C 728.59375 220.542969 724.796875 224.339844 720.15625 224.339844 Z M 262.089844 224.339844 L 179.84375 224.339844 C 175.203125 224.339844 171.40625 220.542969 171.40625 215.90625 C 171.40625 211.265625 175.203125 207.46875 179.84375 207.46875 L 262.089844 207.46875 C 266.730469 207.46875 270.527344 211.265625 270.527344 215.90625 C 270.527344 220.542969 266.730469 224.339844 262.089844 224.339844 Z M 262.089844 224.339844 " fill-opacity="1" fill-rule="evenodd"/><path fill="#3f6b3a" d="M 142.300781 290.984375 C 113.621094 290.984375 90 267.785156 90 238.683594 C 90 210 113.621094 186.378906 142.300781 186.378906 C 170.984375 186.378906 194.605469 210 194.605469 238.683594 C 194.605469 267.785156 170.984375 290.984375 142.300781 290.984375 Z M 142.300781 203.25 C 122.898438 203.25 106.871094 219.28125 106.871094 238.683594 C 106.871094 258.507812 122.898438 274.113281 142.300781 274.113281 C 161.703125 274.113281 177.734375 258.507812 177.734375 238.683594 C 177.734375 219.28125 161.703125 203.25 142.300781 203.25 Z M 142.300781 203.25 " fill-opacity="1" fill-rule="evenodd"/><path fill="#3f6b3a" d="M 757.699219 290.984375 C 728.59375 290.984375 705.394531 267.785156 705.394531 238.683594 C 705.394531 210 728.59375 186.378906 757.699219 186.378906 C 786.378906 186.378906 810 210 810 238.683594 C 810 267.785156 786.378906 290.984375 757.699219 290.984375 Z M 757.699219 203.25 C 737.875 203.25 721.84375 219.28125 721.84375 238.683594 C 721.84375 258.507812 737.875 274.113281 757.699219 274.113281 C 777.101562 274.113281 793.128906 258.507812 793.128906 238.683594 C 793.128906 219.28125 777.101562 203.25 757.699219 203.25 Z M 757.699219 203.25 " fill-opacity="1" fill-rule="evenodd"/><path fill="#3f6b3a" d="M 329.15625 726.273438 C 324.515625 726.273438 320.71875 722.476562 320.71875 717.839844 L 320.71875 687.46875 C 320.71875 682.828125 324.515625 679.035156 329.15625 679.035156 C 333.796875 679.035156 337.59375 682.828125 337.59375 687.46875 L 337.59375 717.839844 C 337.59375 722.476562 333.796875 726.273438 329.15625 726.273438 Z M 329.15625 726.273438 " fill-opacity="1" fill-rule="evenodd"/><path fill="#3f6b3a" d="M 409.71875 726.273438 C 405.078125 726.273438 401.28125 722.476562 401.28125 717.839844 L 401.28125 687.46875 C 401.28125 682.828125 405.078125 679.035156 409.71875 679.035156 C 414.359375 679.035156 418.15625 682.828125 418.15625 687.46875 L 418.15625 717.839844 C 418.15625 722.476562 414.359375 726.273438 409.71875 726.273438 Z M 409.71875 726.273438 " fill-opacity="1" fill-rule="evenodd"/><path fill="#3f6b3a" d="M 490.28125 726.273438 C 485.640625 726.273438 481.84375 722.476562 481.84375 717.839844 L 481.84375 687.46875 C 481.84375 682.828125 485.640625 679.035156 490.28125 679.035156 C 494.921875 679.035156 498.71875 682.828125 498.71875 687.46875 L 498.71875 717.839844 C 498.71875 722.476562 494.921875 726.273438 490.28125 726.273438 Z M 490.28125 726.273438 " fill-opacity="1" fill-rule="evenodd"/><path fill="#3f6b3a" d="M 570.84375 726.273438 C 566.203125 726.273438 562.40625 722.476562 562.40625 717.839844 L 562.40625 687.46875 C 562.40625 682.828125 566.203125 679.035156 570.84375 679.035156 C 575.484375 679.035156 579.28125 682.828125 579.28125 687.46875 L 579.28125 717.839844 C 579.28125 722.476562 575.484375 726.273438 570.84375 726.273438 Z M 570.84375 726.273438 " fill-opacity="1" fill-rule="evenodd"/><path fill="#3f6b3a" d="M 637.488281 644.867188 L 262.089844 644.867188 C 257.453125 644.867188 254.078125 641.070312 254.078125 636.433594 C 254.078125 631.792969 257.453125 627.996094 262.089844 627.996094 L 637.488281 627.996094 C 642.125 627.996094 645.921875 631.792969 645.921875 636.433594 C 645.921875 641.070312 642.125 644.867188 637.488281 644.867188 Z M 637.488281 644.867188 " fill-opacity="1" fill-rule="evenodd"/><path fill="#3f6b3a" d="M 637.488281 576.539062 C 635.378906 576.539062 632.847656 575.695312 631.160156 574.007812 L 599.945312 539 L 568.734375 574.007812 C 567.046875 575.695312 564.9375 576.539062 562.40625 576.539062 C 560.296875 576.539062 557.769531 575.695312 556.082031 574.007812 L 524.867188 539 L 493.65625 574.007812 C 491.96875 575.695312 489.859375 576.539062 487.328125 576.539062 C 485.21875 576.539062 482.6875 575.695312 481.421875 574.007812 L 449.789062 539 L 418.578125 574.007812 C 415.625 577.382812 409.296875 577.382812 406.34375 574.007812 L 374.710938 539 L 343.496094 574.007812 C 340.542969 577.382812 334.21875 577.382812 331.265625 574.007812 L 299.632812 539 L 268.417969 574.007812 C 265.464844 577.382812 259.980469 577.804688 256.609375 574.429688 C 253.234375 571.476562 252.8125 565.992188 256.1875 562.617188 L 293.726562 520.859375 C 296.679688 517.488281 303.003906 517.488281 305.957031 520.859375 L 337.171875 555.871094 L 368.804688 520.859375 C 371.757812 517.488281 378.085938 517.488281 381.035156 520.859375 L 412.25 555.871094 L 443.882812 520.859375 C 446.835938 517.488281 453.164062 517.488281 456.117188 520.859375 L 487.328125 555.871094 L 518.542969 520.859375 C 520.226562 519.175781 522.757812 518.332031 524.867188 518.332031 C 527.398438 518.332031 529.507812 519.175781 531.195312 520.859375 L 562.40625 555.871094 L 593.621094 520.859375 C 595.308594 519.175781 597.839844 518.332031 599.945312 518.332031 C 602.476562 518.332031 604.585938 519.175781 606.273438 520.859375 L 643.8125 562.617188 C 646.765625 565.992188 646.765625 571.476562 643.390625 574.429688 C 641.703125 576.117188 639.597656 576.539062 637.488281 576.539062 Z M 637.488281 576.539062 " fill-opacity="1" fill-rule="evenodd"/><path fill="#3f6b3a" d="M 637.488281 518.753906 C 635.378906 518.753906 632.847656 517.910156 631.160156 516.222656 L 599.945312 481.210938 L 568.734375 516.222656 C 567.046875 517.910156 564.9375 518.753906 562.40625 518.753906 C 560.296875 518.753906 557.769531 517.910156 556.082031 516.222656 L 524.867188 481.210938 L 493.65625 516.222656 C 491.96875 517.910156 489.859375 518.753906 487.328125 518.753906 C 485.21875 518.753906 482.6875 517.910156 481.421875 516.222656 L 449.789062 481.210938 L 418.578125 516.222656 C 415.625 519.597656 409.296875 519.597656 406.34375 516.222656 L 374.710938 481.210938 L 343.496094 516.222656 C 340.542969 519.597656 334.21875 519.597656 331.265625 516.222656 L 299.632812 481.210938 L 268.417969 516.222656 C 265.464844 519.597656 259.980469 520.015625 256.609375 516.644531 C 253.234375 513.691406 252.8125 508.207031 256.1875 504.832031 L 293.726562 463.074219 C 296.679688 459.703125 303.003906 459.703125 305.957031 463.074219 L 337.171875 498.085938 L 368.804688 463.074219 C 371.757812 459.703125 378.085938 459.703125 381.035156 463.074219 L 412.25 498.085938 L 443.882812 463.074219 C 446.835938 459.703125 453.164062 459.703125 456.117188 463.074219 L 487.328125 498.085938 L 518.542969 463.074219 C 520.226562 461.386719 522.757812 460.542969 524.867188 460.542969 C 527.398438 460.542969 529.507812 461.386719 531.195312 463.074219 L 562.40625 498.085938 L 593.621094 463.074219 C 595.308594 461.386719 597.839844 460.542969 599.945312 460.542969 C 602.476562 460.542969 604.585938 461.386719 606.273438 463.074219 L 643.8125 504.832031 C 646.765625 508.207031 646.765625 513.691406 643.390625 516.644531 C 641.703125 518.332031 639.597656 518.753906 637.488281 518.753906 Z M 637.488281 518.753906 " fill-opacity="1" fill-rule="evenodd"/><path fill="#3f6b3a" d="M 262.089844 460.964844 C 260.402344 460.964844 258.296875 460.542969 256.609375 458.859375 C 253.234375 455.90625 252.8125 450.421875 256.1875 447.046875 L 293.726562 405.289062 C 296.679688 401.914062 303.003906 401.914062 305.957031 405.289062 L 337.171875 440.296875 L 368.804688 405.289062 C 371.757812 401.914062 378.085938 401.914062 381.035156 405.289062 L 412.25 440.296875 L 443.882812 405.289062 C 446.835938 401.914062 453.164062 401.914062 456.117188 405.289062 L 487.328125 440.296875 L 518.542969 405.289062 C 520.226562 403.601562 522.757812 402.757812 524.867188 402.757812 C 527.398438 402.757812 529.507812 403.601562 531.195312 405.289062 L 562.40625 440.296875 L 593.621094 405.289062 C 595.308594 403.601562 597.839844 402.757812 599.945312 402.757812 C 602.476562 402.757812 604.585938 403.601562 606.273438 405.289062 L 643.8125 447.046875 C 646.765625 450.421875 646.765625 455.90625 642.96875 458.859375 C 639.597656 462.230469 634.535156 461.808594 631.160156 458.4375 L 599.945312 423.425781 L 568.734375 458.4375 C 567.046875 460.121094 564.9375 460.964844 562.40625 460.964844 C 560.296875 460.964844 557.769531 460.121094 556.082031 458.4375 L 524.867188 423.425781 L 493.65625 458.4375 C 491.96875 460.121094 489.859375 460.964844 487.328125 460.964844 C 485.21875 460.964844 482.6875 460.121094 481 458.4375 L 449.789062 423.425781 L 418.578125 458.4375 C 415.625 461.808594 409.296875 461.808594 406.34375 458.4375 L 374.710938 423.425781 L 343.496094 458.4375 C 340.542969 461.808594 334.21875 461.808594 331.265625 458.4375 L 299.632812 423.425781 L 268.417969 458.4375 C 266.730469 460.121094 264.621094 460.964844 262.089844 460.964844 Z M 262.089844 460.964844 " fill-opacity="1" fill-rule="evenodd"/></svg>